{
  "accessors": [
    {
      "bufferView": 2,
      "componentType": 5126,
      "count": 6406,
      "max": [
        0.08950551599264145,
        0.11961919814348221,
        0.13505621254444122
      ],
      "min": [
        -0.07688990235328674,
        -0.11966816335916519,
        -0.03948713466525078
      ],
      "type": "VEC3"
    },
    {
      "bufferView": 2,
      "byteOffset": 76872,
      "componentType": 5126,
      "count": 6406,
      "max": [
        0.9995819330215454,
        0.9956454634666443,
        0.9986730217933655
      ],
      "min": [
        -0.9999133348464966,
        -0.9988691806793213,
        -0.9997854232788086
      ],
      "type": "VEC3"
    },
    {
      "bufferView": 1,
      "componentType": 5126,
      "count": 6406,
      "max": [
        0.9409752488136292,
        1.4114627838134766
      ],
      "min": [
        -0.2743084728717804,
        -0.4114627242088318
      ],
      "type": "VEC2"
    },
    {
      "bufferView": 1,
      "byteOffset": 51248,
      "componentType": 5126,
      "count": 6406,
      "max": [
        0.9409752488136292,
        1.4114627838134766
      ],
      "min": [
        -0.2743084728717804,
        -0.4114627242088318
      ],
      "type": "VEC2"
    },
    {
      "bufferView": 0,
      "componentType": 5125,
      "count": 17280,
      "type": "SCALAR"
    },
    {
      "bufferView": 2,
      "byteOffset": 153744,
      "componentType": 5126,
      "count": 2217,
      "max": [
        0.09040304273366928,
        0.12472885847091675,
        0.1358180046081543
      ],
      "min": [
        -0.1273835152387619,
        -0.11692259460687637,
        -0.08372092247009277
      ],
      "type": "VEC3"
    },
    {
      "bufferView": 2,
      "byteOffset": 180348,
      "componentType": 5126,
      "count": 2217,
      "max": [
        0.9878682494163513,
        0.9991192817687988,
        0.9996750354766846
      ],
      "min": [
        -0.9767844676971436,
        -0.9991064071655273,
        -0.9979365468025208
      ],
      "type": "VEC3"
    },
    {
      "bufferView": 1,
      "byteOffset": 102496,
      "componentType": 5126,
      "count": 2217,
      "max": [
        1.0,
        1.0
      ],
      "min": [
        0.0,
        0.0
      ],
      "type": "VEC2"
    },
    {
      "bufferView": 0,
      "byteOffset": 69120,
      "componentType": 5125,
      "count": 6678,
      "type": "SCALAR"
    },
    {
      "bufferView": 2,
      "byteOffset": 206952,
      "componentType": 5126,
      "count": 2232,
      "max": [
        0.230168879032135,
        0.08023818582296371,
        0.03422842174768448
      ],
      "min": [
        -0.2510529160499573,
        -0.08107110857963562,
        -0.22220882773399353
      ],
      "type": "VEC3"
    },
    {
      "bufferView": 2,
      "byteOffset": 233736,
      "componentType": 5126,
      "count": 2232,
      "max": [
        0.997355043888092,
        0.9999305009841919,
        0.9999266862869263
      ],
      "min": [
        -0.9973708391189575,
        -0.9994601011276245,
        -0.9909271001815796
      ],
      "type": "VEC3"
    },
    {
      "bufferView": 1,
      "byteOffset": 120232,
      "componentType": 5126,
      "count": 2232,
      "max": [
        0.9736229181289673,
        0.8844141960144043
      ],
      "min": [
        0.011166758835315704,
        0.008625010959804058
      ],
      "type": "VEC2"
    },
    {
      "bufferView": 1,
      "byteOffset": 138088,
      "componentType": 5126,
      "count": 2232,
      "max": [
        0.9736229181289673,
        0.8844141960144043
      ],
      "min": [
        0.011166758835315704,
        0.008625010959804058
      ],
      "type": "VEC2"
    },
    {
      "bufferView": 1,
      "byteOffset": 155944,
      "componentType": 5126,
      "count": 2232,
      "max": [
        0.9736229181289673,
        0.8844141960144043
      ],
      "min": [
        0.011166758835315704,
        0.008625010959804058
      ],
      "type": "VEC2"
    },
    {
      "bufferView": 1,
      "byteOffset": 173800,
      "componentType": 5126,
      "count": 2232,
      "max": [
        0.9736229181289673,
        0.8844141960144043
      ],
      "min": [
        0.011166758835315704,
        0.008625010959804058
      ],
      "type": "VEC2"
    },
    {
      "bufferView": 0,
      "byteOffset": 95832,
      "componentType": 5125,
      "count": 10923,
      "type": "SCALAR"
    },
    {
      "bufferView": 2,
      "byteOffset": 260520,
      "componentType": 5126,
      "count": 491,
      "max": [
        0.253008633852005,
        0.08896898478269577,
        0.046967823058366776
      ],
      "min": [
        -0.2510529160499573,
        -0.08825154602527618,
        -0.057976774871349335
      ],
      "type": "VEC3"
    },
    {
      "bufferView": 2,
      "byteOffset": 266412,
      "componentType": 5126,
      "count": 491,
      "max": [
        0.9922541975975037,
        0.9997240304946899,
        0.9952279329299927
      ],
      "min": [
        -0.9687262773513794,
        -0.9997732639312744,
        -0.9985058903694153
      ],
      "type": "VEC3"
    },
    {
      "bufferView": 1,
      "byteOffset": 191656,
      "componentType": 5126,
      "count": 491,
      "max": [
        0.9716979265213013,
        0.5789270997047424
      ],
      "min": [
        0.3853501081466675,
        0.09886901825666428
      ],
      "type": "VEC2"
    },
    {
      "bufferView": 0,
      "byteOffset": 139524,
      "componentType": 5125,
      "count": 1788,
      "type": "SCALAR"
    },
    {
      "bufferView": 2,
      "byteOffset": 272304,
      "componentType": 5126,
      "count": 224,
      "max": [
        0.230168879032135,
        0.08722245693206787,
        0.03638244792819023
      ],
      "min": [
        -0.24579297006130219,
        -0.08721280843019485,
        -0.04910266771912575
      ],
      "type": "VEC3"
    },
    {
      "bufferView": 2,
      "byteOffset": 274992,
      "componentType": 5126,
      "count": 224,
      "max": [
        0.757071316242218,
        0.9981353282928467,
        0.6839711666107178
      ],
      "min": [
        -0.9630274176597595,
        -0.9997732639312744,
        -0.9365171790122986
      ],
      "type": "VEC3"
    },
    {
      "bufferView": 1,
      "byteOffset": 195584,
      "componentType": 5126,
      "count": 224,
      "max": [
        0.8051272630691528,
        0.5351506471633911
      ],
      "min": [
        0.41578495502471924,
        0.1363997906446457
      ],
      "type": "VEC2"
    },
    {
      "bufferView": 0,
      "byteOffset": 146676,
      "componentType": 5125,
      "count": 714,
      "type": "SCALAR"
    },
    {
      "bufferView": 2,
      "byteOffset": 277680,
      "componentType": 5126,
      "count": 85,
      "max": [
        0.253008633852005,
        0.08896898478269577,
        0.04051067307591438
      ],
      "min": [
        0.08446185290813446,
        -0.08616876602172852,
        -0.04419127479195595
      ],
      "type": "VEC3"
    },
    {
      "bufferView": 2,
      "byteOffset": 278700,
      "componentType": 5126,
      "count": 85,
      "max": [
        0.9922541975975037,
        0.9982526302337646,
        0.0858490839600563
      ],
      "min": [
        -0.0036317987833172083,
        -0.973784863948822,
        -0.8520771265029907
      ],
      "type": "VEC3"
    },
    {
      "bufferView": 1,
      "byteOffset": 197376,
      "componentType": 5126,
      "count": 85,
      "max": [
        0.4021018147468567,
        0.9048019647598267
      ],
      "min": [
        0.03380996733903885,
        0.8582735061645508
      ],
      "type": "VEC2"
    },
    {
      "bufferView": 0,
      "byteOffset": 149532,
      "componentType": 5125,
      "count": 288,
      "type": "SCALAR"
    },
    {
      "bufferView": 2,
      "byteOffset": 279720,
      "componentType": 5126,
      "count": 157,
      "max": [
        0.25207915902137756,
        0.08762163668870926,
        0.04830116406083107
      ],
      "min": [
        -0.2459402084350586,
        -0.08685630559921265,
        -0.005458978470414877
      ],
      "type": "VEC3"
    },
    {
      "bufferView": 2,
      "byteOffset": 281604,
      "componentType": 5126,
      "count": 157,
      "max": [
        0.9567672610282898,
        0.12940213084220886,
        0.9999978542327881
      ],
      "min": [
        -0.19800575077533722,
        -0.4079511761665344,
        0.26682665944099426
      ],
      "type": "VEC3"
    },
    {
      "bufferView": 3,
      "componentType": 5126,
      "count": 157,
      "max": [
        0.15158918499946594,
        -0.8895267844200134,
        0.30325791239738464,
        1.0
      ],
      "min": [
        -0.4519307315349579,
        -0.9999417662620544,
        -0.4145873785018921,
        1.0
      ],
      "type": "VEC4"
    },
    {
      "bufferView": 1,
      "byteOffset": 198056,
      "componentType": 5126,
      "count": 157,
      "max": [
        0.9867695569992065,
        0.988825798034668
      ],
      "min": [
        0.7907938361167908,
        0.4185711145401001
      ],
      "type": "VEC2"
    },
    {
      "bufferView": 1,
      "byteOffset": 199312,
      "componentType": 5126,
      "count": 157,
      "max": [
        0.9867695569992065,
        0.988825798034668
      ],
      "min": [
        0.7907938361167908,
        0.4185711145401001
      ],
      "type": "VEC2"
    },
    {
      "bufferView": 0,
      "byteOffset": 150684,
      "componentType": 5125,
      "count": 795,
      "type": "SCALAR"
    },
    {
      "bufferView": 2,
      "byteOffset": 283488,
      "componentType": 5126,
      "count": 892,
      "max": [
        0.0402621291577816,
        0.15031513571739197,
        0.04294886440038681
      ],
      "min": [
        -0.039552245289087296,
        0.03867806866765022,
        -0.04069238901138306
      ],
      "type": "VEC3"
    },
    {
      "bufferView": 2,
      "byteOffset": 294192,
      "componentType": 5126,
      "count": 892,
      "max": [
        0.9975989460945129,
        0.9991166591644287,
        0.9837889075279236
      ],
      "min": [
        -0.9959455728530884,
        -0.9991194009780884,
        -0.9983953833580017
      ],
      "type": "VEC3"
    },
    {
      "bufferView": 3,
      "byteOffset": 2512,
      "componentType": 5126,
      "count": 892,
      "max": [
        0.9999714493751526,
        1.0,
        0.9927351474761963,
        1.0
      ],
      "min": [
        -0.9999954700469971,
        -0.9999861121177673,
        -0.9522163271903992,
        -1.0
      ],
      "type": "VEC4"
    },
    {
      "bufferView": 1,
      "byteOffset": 200568,
      "componentType": 5126,
      "count": 892,
      "max": [
        0.6914087533950806,
        0.9470030665397644
      ],
      "min": [
        0.5260054469108582,
        0.7782056927680969
      ],
      "type": "VEC2"
    },
    {
      "bufferView": 1,
      "byteOffset": 207704,
      "componentType": 5126,
      "count": 892,
      "max": [
        0.6914087533950806,
        0.9470030665397644
      ],
      "min": [
        0.5260054469108582,
        0.7782056927680969
      ],
      "type": "VEC2"
    },
    {
      "bufferView": 1,
      "byteOffset": 214840,
      "componentType": 5126,
      "count": 892,
      "max": [
        0.6914087533950806,
        0.9470030665397644
      ],
      "min": [
        0.5260054469108582,
        0.7782056927680969
      ],
      "type": "VEC2"
    },
    {
      "bufferView": 1,
      "byteOffset": 221976,
      "componentType": 5126,
      "count": 892,
      "max": [
        0.6914087533950806,
        0.9470030665397644
      ],
      "min": [
        0.5260054469108582,
        0.7782056927680969
      ],
      "type": "VEC2"
    },
    {
      "bufferView": 0,
      "byteOffset": 153864,
      "componentType": 5125,
      "count": 2976,
      "type": "SCALAR"
    }
  ],
  "asset": {
    "extras": {
      "author": "turbopurr (https://sketchfab.com/turbopurr)",
      "license": "CC-BY-4.0 (http://creativecommons.org/licenses/by/4.0/)",
      "source": "https://sketchfab.com/3d-models/converse-classic-0c6ee67086ed43ff8f531a5db991c8ee",
      "title": "Converse Classic"
    },
    "generator": "Sketchfab-12.66.0",
    "version": "2.0"
  },
  "bufferViews": [
    {
      "buffer": 0,
      "byteLength": 165768,
      "name": "floatBufferViews",
      "target": 34963
    },
    {
      "buffer": 0,
      "byteLength": 229112,
      "byteOffset": 165768,
      "byteStride": 8,
      "name": "floatBufferViews",
      "target": 34962
    },
    {
      "buffer": 0,
      "byteLength": 304896,
      "byteOffset": 394880,
      "byteStride": 12,
      "name": "floatBufferViews",
      "target": 34962
    },
    {
      "buffer": 0,
      "byteLength": 16784,
      "byteOffset": 699776,
      "byteStride": 16,
      "name": "floatBufferViews",
      "target": 34962
    }
  ],
  "buffers": [
    {
      "byteLength": 716560,
      "uri": "scene.bin"
    }
  ],
  "extensionsRequired": [
    "KHR_materials_pbrSpecularGlossiness"
  ],
  "extensionsUsed": [
    "KHR_materials_pbrSpecularGlossiness"
  ],
  "images": [
    {
      "uri": "textures/LACE_diffuse.jpeg"
    },
    {
      "uri": "textures/FIRM_diffuse.png"
    },
    {
      "uri": "textures/FIRM_specularGlossiness.png"
    },
    {
      "uri": "textures/LABLE_specularGlossiness.png"
    }
  ],
  "materials": [
    {
      "doubleSided": true,
      "extensions": {
        "KHR_materials_pbrSpecularGlossiness": {
          "diffuseFactor": [
            1.0,
            1.0,
            1.0,
            1.0
          ],
          "diffuseTexture": {
            "index": 0
          },
          "glossinessFactor": 0.0,
          "specularFactor": [
            0.4016413833,
            0.4016413833,
            0.4016413833
          ]
        }
      },
      "name": "LACE"
    },
    {
      "doubleSided": true,
      "extensions": {
        "KHR_materials_pbrSpecularGlossiness": {
          "diffuseFactor": [
            0.458353,
            0.458353,
            0.458353,
            1.0
          ],
          "glossinessFactor": 0.641667,
          "specularFactor": [
            0.7,
            0.7,
            0.7
          ]
        }
      },
      "name": "RINGS"
    },
    {
      "doubleSided": true,
      "extensions": {
        "KHR_materials_pbrSpecularGlossiness": {
          "diffuseFactor": [
            1.0,
            1.0,
            1.0,
            1.0
          ],
          "diffuseTexture": {
            "index": 1
          },
          "glossinessFactor": 1.0,
          "specularFactor": [
            0.0,
            0.0,
            0.0
          ],
          "specularGlossinessTexture": {
            "index": 2
          }
        }
      },
      "name": "FIRM"
    },
    {
      "doubleSided": true,
      "extensions": {
        "KHR_materials_pbrSpecularGlossiness": {
          "diffuseFactor": [
            1.0,
            1.0,
            1.0,
            1.0
          ],
          "glossinessFactor": 0.5,
          "specularFactor": [
            0.0,
            0.0,
            0.0
          ]
        }
      },
      "name": "SOIL"
    },
    {
      "doubleSided": true,
      "extensions": {
        "KHR_materials_pbrSpecularGlossiness": {
          "diffuseFactor": [
            0.0,
            0.0,
            0.0,
            1.0
          ],
          "glossinessFactor": 0.19545500000000005,
          "specularFactor": [
            0.0,
            0.0,
            0.0
          ]
        }
      },
      "name": "SOIL_BLACK"
    },
    {
      "doubleSided": true,
      "extensions": {
        "KHR_materials_pbrSpecularGlossiness": {
          "diffuseFactor": [
            1.0,
            0.9309814245,
            0.9309814245,
            1.0
          ],
          "glossinessFactor": 0.0,
          "specularFactor": [
            0.0,
            0.0,
            0.0
          ]
        }
      },
      "name": "SOIL_FRONT"
    },
    {
      "doubleSided": true,
      "extensions": {
        "KHR_materials_pbrSpecularGlossiness": {
          "diffuseFactor": [
            1.0,
            1.0,
            1.0,
            1.0
          ],
          "diffuseTexture": {
            "index": 1
          },
          "glossinessFactor": 0.0,
          "specularFactor": [
            0.0,
            0.0,
            0.0
          ]
        }
      },
      "name": "soil_bottom",
      "normalTexture": {
        "index": 1
      }
    },
    {
      "doubleSided": true,
      "extensions": {
        "KHR_materials_pbrSpecularGlossiness": {
          "diffuseFactor": [
            1.0,
            1.0,
            1.0,
            1.0
          ],
          "diffuseTexture": {
            "index": 1
          },
          "glossinessFactor": 1.0,
          "specularFactor": [
            0.0,
            0.0,
            0.0
          ],
          "specularGlossinessTexture": {
            "index": 3
          }
        }
      },
      "name": "LABLE",
      "normalTexture": {
        "index": 1
      }
    }
  ],
  "meshes": [
    {
      "name": "Object_0",
      "primitives": [
        {
          "attributes": {
            "NORMAL": 1,
            "POSITION": 0,
            "TEXCOORD_0": 2,
            "TEXCOORD_1": 3
          },
          "indices": 4,
          "material": 0,
          "mode": 4
        }
      ]
    },
    {
      "name": "Object_1",
      "primitives": [
        {
          "attributes": {
            "NORMAL": 6,
            "POSITION": 5,
            "TEXCOORD_0": 7
          },
          "indices": 8,
          "material": 1,
          "mode": 4
        }
      ]
    },
    {
      "name": "Object_2",
      "primitives": [
        {
          "attributes": {
            "NORMAL": 10,
            "POSITION": 9,
            "TEXCOORD_0": 11,
            "TEXCOORD_1": 12,
            "TEXCOORD_2": 13,
            "TEXCOORD_3": 14
          },
          "indices": 15,
          "material": 2,
          "mode": 4
        }
      ]
    },
    {
      "name": "Object_3",
      "primitives": [
        {
          "attributes": {
            "NORMAL": 17,
            "POSITION": 16,
            "TEXCOORD_0": 18
          },
          "indices": 19,
          "material": 3,
          "mode": 4
        }
      ]
    },
    {
      "name": "Object_4",
      "primitives": [
        {
          "attributes": {
            "NORMAL": 21,
            "POSITION": 20,
            "TEXCOORD_0": 22
          },
          "indices": 23,
          "material": 4,
          "mode": 4
        }
      ]
    },
    {
      "name": "Object_5",
      "primitives": [
        {
          "attributes": {
            "NORMAL": 25,
            "POSITION": 24,
            "TEXCOORD_0": 26
          },
          "indices": 27,
          "material": 5,
          "mode": 4
        }
      ]
    },
    {
      "name": "Object_6",
      "primitives": [
        {
          "attributes": {
            "NORMAL": 29,
            "POSITION": 28,
            "TANGENT": 30,
            "TEXCOORD_0": 31,
            "TEXCOORD_1": 32
          },
          "indices": 33,
          "material": 6,
          "mode": 4
        }
      ]
    },
    {
      "name": "Object_7",
      "primitives": [
        {
          "attributes": {
            "NORMAL": 35,
            "POSITION": 34,
            "TANGENT": 36,
            "TEXCOORD_0": 37,
            "TEXCOORD_1": 38,
            "TEXCOORD_2": 39,
            "TEXCOORD_3": 40
          },
          "indices": 41,
          "material": 7,
          "mode": 4
        }
      ]
    }
  ],
  "nodes": [
    {
      "children": [
        1
      ],
      "matrix": [
        6.67785120010376,
        0.0,
        0.0,
        0.0,
        0.0,
        1.4827808314751855e-15,
        -6.67785120010376,
        0.0,
        0.0,
        6.67785120010376,
        1.4827808314751855e-15,
        0.0,
        0.0,
        0.0,
        0.0,
        1.0
      ],
      "name": "Sketchfab_model"
    },
    {
      "children": [
        2
      ],
      "name": "root"
    },
    {
      "children": [
        3,
        5,
        7,
        13
      ],
      "matrix": [
        1.0,
        0.0,
        0.0,
        0.0,
        0.0,
        2.220446049250313e-16,
        1.0,
        0.0,
        0.0,
        -1.0,
        2.220446049250313e-16,
        0.0,
        0.0,
        0.0,
        0.0,
        1.0
      ],
      "name": "GLTF_SceneRootNode"
    },
    {
      "children": [
        4
      ],
      "matrix": [
        0.754803833572611,
        0.3698562323265399,
        -0.541735673768404,
        0.0,
        -0.4162278229123248,
        0.9083697884132633,
        0.040233405668793215,
        0.0,
        0.506976895191247,
        0.19511713125007712,
        0.8395854529677034,
        0.0,
        -0.7195032238960266,
        0.7255668640136719,
        0.016322597861289978,
        1.0
      ],
      "name": "Cube.008_1"
    },
    {
      "mesh": 0,
      "name": "Object_4"
    },
    {
      "children": [
        6
      ],
      "matrix": [
        0.754803833572611,
        0.3698562323265399,
        -0.541735673768404,
        0.0,
        -0.4162278229123248,
        0.9083697884132633,
        0.040233405668793215,
        0.0,
        0.506976895191247,
        0.19511713125007712,
        0.8395854529677034,
        0.0,
        -0.7184949517250061,
        0.7255668640136719,
        0.01667216420173645,
        1.0
      ],
      "name": "Cube.000_2"
    },
    {
      "mesh": 1,
      "name": "Object_6"
    },
    {
      "children": [
        8,
        9,
        10,
        11,
        12
      ],
      "matrix": [
        1.1006666421890259,
        0.0,
        0.0,
        0.0,
        0.0,
        -8.429369846574275e-07,
        0.9999999999996446,
        0.0,
        0.0,
        -0.9999999999996446,
        -8.429369846574275e-07,
        0.0,
        -0.7065465450286865,
        0.6188124418258667,
        0.04553745314478874,
        1.0
      ],
      "name": "Plane.000_3"
    },
    {
      "mesh": 2,
      "name": "Object_8"
    },
    {
      "mesh": 3,
      "name": "Object_9"
    },
    {
      "mesh": 4,
      "name": "Object_10"
    },
    {
      "mesh": 5,
      "name": "Object_11"
    },
    {
      "mesh": 6,
      "name": "Object_12"
    },
    {
      "children": [
        14
      ],
      "matrix": [
        1.0,
        0.0,
        0.0,
        0.0,
        0.0,
        -8.429369846574275e-07,
        0.9999999999996446,
        0.0,
        0.0,
        -0.9999999999996446,
        -8.429369846574275e-07,
        0.0,
        -0.8603023886680603,
        0.7239850759506226,
        -0.0476076602935791,
        1.0
      ],
      "name": "Plane.001_4"
    },
    {
      "mesh": 7,
      "name": "Object_14"
    }
  ],
  "samplers": [
    {
      "magFilter": 9729,
      "minFilter": 9987,
      "wrapS": 10497,
      "wrapT": 10497
    }
  ],
  "scene": 0,
  "scenes": [
    {
      "name": "Sketchfab_Scene",
      "nodes": [
        0
      ]
    }
  ],
  "textures": [
    {
      "sampler": 0,
      "source": 0
    },
    {
      "sampler": 0,
      "source": 1
    },
    {
      "sampler": 0,
      "source": 2
    },
    {
      "sampler": 0,
      "source": 3
    }
  ]
}
