{
  "accessors": [
    {
      "bufferView": 2,
      "componentType": 5126,
      "count": 31578,
      "max": [
        0.13027743995189667,
        0.141001358628273,
        0.021388215944170952
      ],
      "min": [
        -0.17875462770462036,
        -0.004288422875106335,
        -0.10342919081449509
      ],
      "type": "VEC3"
    },
    {
      "bufferView": 2,
      "byteOffset": 378936,
      "componentType": 5126,
      "count": 31578,
      "max": [
        0.999954879283905,
        0.9999997615814209,
        0.9999505281448364
      ],
      "min": [
        -0.999778687953949,
        -0.999816358089447,
        -0.9999956488609314
      ],
      "type": "VEC3"
    },
    {
      "bufferView": 1,
      "componentType": 5126,
      "count": 31578,
      "max": [
        0.9983388185501099,
        0.9958214163780212
      ],
      "min": [
        0.00043798628030344844,
        0.00016278481052722782
      ],
      "type": "VEC2"
    },
    {
      "bufferView": 1,
      "byteOffset": 252624,
      "componentType": 5126,
      "count": 31578,
      "max": [
        0.9983388185501099,
        0.9958214163780212
      ],
      "min": [
        0.00043798628030344844,
        0.00016278481052722782
      ],
      "type": "VEC2"
    },
    {
      "bufferView": 1,
      "byteOffset": 505248,
      "componentType": 5126,
      "count": 31578,
      "max": [
        0.9983388185501099,
        0.9958214163780212
      ],
      "min": [
        0.00043798628030344844,
        0.00016278481052722782
      ],
      "type": "VEC2"
    },
    {
      "bufferView": 0,
      "componentType": 5125,
      "count": 155049,
      "type": "SCALAR"
    }
  ],
  "asset": {
    "extras": {
      "author": "Tykix (https://sketchfab.com/Tykix)",
      "license": "CC-BY-NC-SA-4.0 (http://creativecommons.org/licenses/by-nc-sa/4.0/)",
      "source": "https://sketchfab.com/3d-models/yeezy-boost-700-waverunner-256ca5ac8fa047c2b01fa4fc5ae01318",
      "title": "Yeezy Boost 700 Waverunner"
    },
    "generator": "Sketchfab-12.68.0",
    "version": "2.0"
  },
  "bufferViews": [
    {
      "buffer": 0,
      "byteLength": 620196,
      "name": "floatBufferViews",
      "target": 34963
    },
    {
      "buffer": 0,
      "byteLength": 757872,
      "byteOffset": 620196,
      "byteStride": 8,
      "name": "floatBufferViews",
      "target": 34962
    },
    {
      "buffer": 0,
      "byteLength": 757872,
      "byteOffset": 1378068,
      "byteStride": 12,
      "name": "floatBufferViews",
      "target": 34962
    }
  ],
  "buffers": [
    {
      "byteLength": 2135940,
      "uri": "scene.bin"
    }
  ],
  "extensionsUsed": [
    "KHR_materials_unlit"
  ],
  "images": [
    {
      "uri": "textures/material_0_baseColor.jpeg"
    }
  ],
  "materials": [
    {
      "extensions": {
        "KHR_materials_unlit": {}
      },
      "name": "material_0",
      "pbrMetallicRoughness": {
        "baseColorTexture": {
          "index": 0
        },
        "metallicFactor": 0.0
      }
    }
  ],
  "meshes": [
    {
      "name": "Object_0",
      "primitives": [
        {
          "attributes": {
            "NORMAL": 1,
            "POSITION": 0,
            "TEXCOORD_0": 2,
            "TEXCOORD_1": 3,
            "TEXCOORD_2": 4
          },
          "indices": 5,
          "material": 0,
          "mode": 4
        }
      ]
    }
  ],
  "nodes": [
    {
      "children": [
        1
      ],
      "matrix": [
        1.0,
        0.0,
        0.0,
        0.0,
        0.0,
        2.220446049250313e-16,
        -1.0,
        0.0,
        0.0,
        1.0,
        2.220446049250313e-16,
        0.0,
        0.0,
        0.0,
        0.0,
        1.0
      ],
      "name": "Sketchfab_model"
    },
    {
      "children": [
        2
      ],
      "name": "root"
    },
    {
      "children": [
        3
      ],
      "matrix": [
        1.0,
        0.0,
        0.0,
        0.0,
        0.0,
        2.220446049250313e-16,
        1.0,
        0.0,
        0.0,
        -1.0,
        2.220446049250313e-16,
        0.0,
        0.0,
        0.0,
        0.0,
        1.0
      ],
      "name": "GLTF_SceneRootNode"
    },
    {
      "children": [
        4
      ],
      "name": "_0"
    },
    {
      "mesh": 0,
      "name": "Object_4"
    }
  ],
  "samplers": [
    {
      "magFilter": 9729,
      "minFilter": 9987,
      "wrapS": 10497,
      "wrapT": 10497
    }
  ],
  "scene": 0,
  "scenes": [
    {
      "name": "Sketchfab_Scene",
      "nodes": [
        0
      ]
    }
  ],
  "textures": [
    {
      "sampler": 0,
      "source": 0
    }
  ]
}
